<svg width="40" height="49" viewBox="0 0 40 49" fill="none" xmlns="http://www.w3.org/2000/svg">
<path fill-rule="evenodd" clip-rule="evenodd" d="M37.672 43.5616C37.2115 43.5616 36.7614 43.6997 36.3786 43.9584C35.9957 44.2172 35.6973 44.5849 35.5211 45.0152C35.3449 45.4455 35.2988 45.9189 35.3886 46.3757C35.4785 46.8324 35.7002 47.252 36.0258 47.5813C36.3514 47.9106 36.7662 48.1349 37.2178 48.2257C37.6694 48.3166 38.1375 48.27 38.5629 48.0917C38.9883 47.9135 39.3518 47.6117 39.6077 47.2245C39.8635 46.8373 40 46.382 40 45.9163C40.0048 45.6057 39.9478 45.2974 39.8325 45.0095C39.7172 44.7217 39.5459 44.4602 39.3287 44.2406C39.1116 44.0209 38.8531 43.8477 38.5685 43.731C38.2839 43.6144 37.979 43.5568 37.672 43.5616ZM29.9824 43.5616C29.5219 43.5616 29.0718 43.6997 28.689 43.9584C28.3061 44.2172 28.0077 44.5849 27.8315 45.0152C27.6553 45.4455 27.6092 45.9189 27.6991 46.3757C27.7889 46.8324 28.0106 47.252 28.3362 47.5813C28.6618 47.9106 29.0766 48.1349 29.5282 48.2257C29.9798 48.3166 30.4479 48.27 30.8733 48.0917C31.2987 47.9135 31.6622 47.6117 31.9181 47.2245C32.1739 46.8373 32.3104 46.382 32.3104 45.9163C32.3152 45.6057 32.2582 45.2974 32.1429 45.0095C32.0276 44.7217 31.8563 44.4602 31.6391 44.2406C31.422 44.0209 31.1635 43.8477 30.8789 43.731C30.5943 43.6144 30.2894 43.5568 29.9824 43.5616ZM22.2928 43.5616C21.8323 43.5616 21.3822 43.6997 20.9994 43.9584C20.6165 44.2172 20.3181 44.5849 20.1419 45.0152C19.9657 45.4455 19.9196 45.9189 20.0095 46.3757C20.0993 46.8324 20.321 47.252 20.6466 47.5813C20.9722 47.9106 21.387 48.1349 21.8386 48.2257C22.2902 48.3166 22.7583 48.27 23.1837 48.0917C23.6091 47.9135 23.9727 47.6117 24.2285 47.2245C24.4843 46.8373 24.6208 46.382 24.6208 45.9163C24.6208 45.2918 24.3755 44.6929 23.9389 44.2513C23.5023 43.8097 22.9102 43.5616 22.2928 43.5616ZM29.9824 37.3538C29.3743 37.3538 28.7911 37.5981 28.3611 38.033C27.9312 38.4679 27.6896 39.0578 27.6896 39.6728C27.6826 40.1415 27.8141 40.6016 28.0672 40.9943C28.3203 41.3869 28.6835 41.6942 29.1103 41.8768C29.5371 42.0595 30.0081 42.1091 30.463 42.0194C30.9178 41.9297 31.3359 41.7047 31.6635 41.3732C31.9912 41.0418 32.2137 40.619 32.3024 40.1589C32.3911 39.6989 32.342 39.2225 32.1614 38.7908C31.9809 38.3591 31.6771 37.9917 31.2888 37.7358C30.9006 37.4798 30.4457 37.3468 29.9824 37.3538ZM22.2928 37.3538C21.6847 37.3538 21.1015 37.5981 20.6715 38.033C20.2416 38.4679 20 39.0578 20 39.6728C19.9999 40.2912 20.2404 40.8848 20.6693 41.3253C21.0983 41.7659 21.6815 42.0181 22.2928 42.0275C22.6031 42.0322 22.9114 41.9751 23.1999 41.8593C23.4884 41.7435 23.7516 41.5713 23.9743 41.3527C24.197 41.134 24.375 40.8731 24.498 40.5849C24.6211 40.2967 24.6868 39.9867 24.6914 39.6728C24.6868 39.3605 24.6209 39.0522 24.4974 38.766C24.374 38.4797 24.1954 38.2211 23.9722 38.0053C23.749 37.7894 23.4855 37.6207 23.1972 37.5089C22.9089 37.397 22.6014 37.3443 22.2928 37.3538ZM14.6032 37.3538C13.9951 37.3538 13.4119 37.5981 12.9819 38.033C12.552 38.4679 12.3104 39.0578 12.3104 39.6728C12.3103 40.2912 12.5508 40.8848 12.9798 41.3253C13.4087 41.7659 13.9919 42.0181 14.6032 42.0275C15.2178 42.0183 15.8046 41.7672 16.2393 41.3276C16.6739 40.888 16.9221 40.2944 16.9312 39.6728C16.922 39.0545 16.6726 38.4647 16.237 38.0308C15.8014 37.5969 15.2145 37.3537 14.6032 37.3538ZM23.8448 31.1103C23.2335 31.1197 22.6504 31.3719 22.2214 31.8125C21.7924 32.2531 21.552 32.8466 21.552 33.465C21.552 34.0801 21.7936 34.6699 22.2236 35.1048C22.6535 35.5397 23.2367 35.784 23.8448 35.784C24.4529 35.784 25.036 35.5397 25.466 35.1048C25.896 34.6699 26.1376 34.0801 26.1376 33.465C26.1376 32.8466 25.8972 32.2531 25.4682 31.8125C25.0392 31.3719 24.4561 31.1197 23.8448 31.1103ZM16.1552 31.1103C15.5439 31.1197 14.9608 31.3719 14.5318 31.8125C14.1028 32.2531 13.8624 32.8466 13.8624 33.465C13.8624 34.0801 14.104 34.6699 14.534 35.1048C14.9639 35.5397 15.5471 35.784 16.1552 35.784C16.7633 35.784 17.3465 35.5397 17.7764 35.1048C18.2064 34.6699 18.448 34.0801 18.448 33.465C18.448 32.8466 18.2076 32.2531 17.7786 31.8125C17.3496 31.3719 16.7665 31.1197 16.1552 31.1103ZM8.46561 31.1103C7.85101 31.1195 7.26414 31.3706 6.82951 31.8102C6.39487 32.2498 6.14667 32.8434 6.13757 33.465C6.17355 34.0645 6.43462 34.6273 6.86738 35.0385C7.30013 35.4497 7.87186 35.6781 8.46561 35.677C9.07369 35.677 9.65686 35.4327 10.0868 34.9978C10.5168 34.5629 10.7584 33.973 10.7584 33.358C10.7315 32.7583 10.4791 32.1917 10.053 31.774C9.62683 31.3562 9.05902 31.1188 8.46561 31.1103ZM17.6367 24.9739C17.3326 24.9692 17.0307 25.0257 16.7484 25.1401C16.4662 25.2545 16.2093 25.4246 15.9926 25.6404C15.7759 25.8562 15.6039 26.1134 15.4865 26.3971C15.3691 26.6808 15.3086 26.9853 15.3086 27.2929C15.2681 27.624 15.2976 27.9601 15.3952 28.2788C15.4928 28.5975 15.6562 28.8916 15.8747 29.1416C16.0931 29.3916 16.3616 29.5917 16.6623 29.7289C16.9631 29.866 17.2892 29.9369 17.619 29.9369C17.9489 29.9369 18.275 29.866 18.5757 29.7289C18.8765 29.5917 19.145 29.3916 19.3634 29.1416C19.5819 28.8916 19.7453 28.5975 19.8429 28.2788C19.9405 27.9601 19.97 27.624 19.9295 27.2929C19.9295 26.6779 19.6879 26.088 19.2579 25.6531C18.8279 25.2182 18.2448 24.9739 17.6367 24.9739ZM9.98236 24.9739C9.37428 24.9739 8.79111 25.2182 8.36113 25.6531C7.93115 26.088 7.68959 26.6779 7.68959 27.2929C7.68262 27.7616 7.81411 28.2217 8.06721 28.6143C8.32031 29.007 8.68352 29.3143 9.11032 29.4969C9.53712 29.6795 10.0081 29.7292 10.463 29.6395C10.9178 29.5497 11.3359 29.3248 11.6635 28.9933C11.9912 28.6619 12.2137 28.2391 12.3024 27.779C12.3911 27.3189 12.342 26.8426 12.1614 26.4109C11.9809 25.9792 11.6771 25.6118 11.2888 25.3558C10.9006 25.0998 10.4457 24.9668 9.98236 24.9739ZM2.29277 24.9739C1.69672 24.9736 1.12398 25.2081 0.695977 25.6277C0.267971 26.0473 0.01834 26.619 1.53596e-08 27.2215C-7.01645e-05 27.8399 0.240357 28.4335 0.66935 28.8741C1.09834 29.3146 1.68147 29.5669 2.29277 29.5762C2.9102 29.5762 3.50235 29.3281 3.93894 28.8866C4.37554 28.445 4.62081 27.846 4.62081 27.2215C4.60236 26.6127 4.34783 26.0357 3.91222 25.6151C3.47661 25.1946 2.8949 24.9642 2.29277 24.9739ZM15.3792 21.0137C15.3794 21.4825 15.5179 21.9404 15.777 22.3291C16.036 22.7177 16.4039 23.0192 16.8334 23.1952C17.2629 23.3711 17.7346 23.4134 18.188 23.3166C18.6414 23.2198 19.0559 22.9884 19.3785 22.6519C19.7011 22.3154 19.9171 21.8892 19.9988 21.4278C20.0805 20.9665 20.0242 20.4909 19.8371 20.0621C19.6501 19.6333 19.3407 19.2707 18.9487 19.0208C18.5567 18.7708 18.0999 18.6449 17.6367 18.6591C17.0316 18.6776 16.4574 18.9339 16.0359 19.3735C15.6145 19.8131 15.3789 20.4014 15.3792 21.0137ZM7.68959 21.0137C7.75937 21.5838 8.03274 22.1084 8.45826 22.4888C8.88378 22.8692 9.4321 23.0791 10 23.0791C10.5679 23.0791 11.1162 22.8692 11.5417 22.4888C11.9673 22.1084 12.2406 21.5838 12.3104 21.0137C12.3509 20.6826 12.3214 20.3466 12.2238 20.0279C12.1263 19.7092 11.9628 19.4151 11.7444 19.1651C11.5259 18.9151 11.2574 18.7149 10.9567 18.5778C10.656 18.4407 10.3299 18.3698 10 18.3698C9.67013 18.3698 9.34403 18.4407 9.0433 18.5778C8.74257 18.7149 8.47408 18.9151 8.25563 19.1651C8.03718 19.4151 7.87374 19.7092 7.77616 20.0279C7.67857 20.3466 7.64907 20.6826 7.68959 21.0137ZM2.29277 18.6591C1.68147 18.6684 1.09834 18.9206 0.66935 19.3612C0.240357 19.8018 -7.01645e-05 20.3954 1.53596e-08 21.0137C1.53596e-08 21.3183 0.0593042 21.6198 0.174527 21.9012C0.289749 22.1825 0.458633 22.4382 0.671536 22.6535C0.88444 22.8689 1.13719 23.0397 1.41536 23.1562C1.69354 23.2728 1.99168 23.3328 2.29277 23.3328C2.59681 23.3375 2.89875 23.281 3.18101 23.1666C3.46327 23.0522 3.7202 22.8821 3.93685 22.6663C4.15351 22.4505 4.32555 22.1932 4.44297 21.9095C4.56039 21.6258 4.62085 21.3213 4.62081 21.0137C4.62081 20.3892 4.37554 19.7903 3.93894 19.3487C3.50235 18.9071 2.9102 18.6591 2.29277 18.6591ZM23.8448 12.4513C23.2367 12.4513 22.6535 12.6956 22.2236 13.1305C21.7936 13.5654 21.552 14.1552 21.552 14.7703C21.552 15.3853 21.7936 15.9752 22.2236 16.4101C22.6535 16.845 23.2367 17.0893 23.8448 17.0893C24.4529 17.0893 25.036 16.845 25.466 16.4101C25.896 15.9752 26.1376 15.3853 26.1376 14.7703C26.1376 14.1552 25.896 13.5654 25.466 13.1305C25.036 12.6956 24.4529 12.4513 23.8448 12.4513ZM13.8624 14.7703C13.8624 15.0748 13.9217 15.3764 14.037 15.6577C14.1522 15.9391 14.3211 16.1947 14.534 16.4101C14.7469 16.6254 14.9996 16.7962 15.2778 16.9128C15.556 17.0293 15.8541 17.0893 16.1552 17.0893C16.4563 17.0893 16.7544 17.0293 17.0326 16.9128C17.3108 16.7962 17.5635 16.6254 17.7764 16.4101C17.9893 16.1947 18.1582 15.9391 18.2734 15.6577C18.3887 15.3764 18.448 15.0748 18.448 14.7703C18.448 14.4657 18.3887 14.1642 18.2734 13.8828C18.1582 13.6015 17.9893 13.3458 17.7764 13.1305C17.5635 12.9152 17.3108 12.7443 17.0326 12.6278C16.7544 12.5113 16.4563 12.4513 16.1552 12.4513C15.8541 12.4513 15.556 12.5113 15.2778 12.6278C14.9996 12.7443 14.7469 12.9152 14.534 13.1305C14.3211 13.3458 14.1522 13.6015 14.037 13.8828C13.9217 14.1642 13.8624 14.4657 13.8624 14.7703ZM8.46561 17.125C9.07691 17.1156 9.66003 16.8634 10.089 16.4228C10.518 15.9822 10.7584 15.3886 10.7584 14.7703C10.7584 14.1552 10.5168 13.5654 10.0868 13.1305C9.65686 12.6956 9.07369 12.4513 8.46561 12.4513C7.85424 12.4512 7.26737 12.6944 6.83178 13.1283C6.39619 13.5622 6.14683 14.152 6.13757 14.7703C6.14667 15.3919 6.39487 15.9855 6.82951 16.4251C7.26414 16.8647 7.85101 17.1157 8.46561 17.125ZM29.9824 6.2078C29.3711 6.21717 28.7879 6.46938 28.3589 6.90995C27.9299 7.35053 27.6895 7.94411 27.6896 8.56248C27.7594 9.13253 28.0327 9.65712 28.4583 10.0375C28.8838 10.4179 29.4321 10.6279 30 10.6279C30.5679 10.6279 31.1162 10.4179 31.5417 10.0375C31.9673 9.65712 32.2406 9.13253 32.3104 8.56248C32.3104 7.93798 32.0651 7.33906 31.6285 6.89747C31.1919 6.45588 30.5998 6.2078 29.9824 6.2078ZM20 8.56248C20 9.17752 20.2416 9.76736 20.6715 10.2023C21.1015 10.6372 21.6847 10.8815 22.2928 10.8815C22.6014 10.891 22.9089 10.8383 23.1972 10.7264C23.4855 10.6146 23.749 10.4458 23.9722 10.23C24.1954 10.0142 24.374 9.75562 24.4974 9.46934C24.6209 9.18305 24.6868 8.87478 24.6914 8.56248C24.6822 7.94085 24.434 7.34726 23.9994 6.90765C23.5648 6.46805 22.9779 6.21701 22.3633 6.2078C22.0546 6.20307 21.7481 6.26048 21.4616 6.37669C21.175 6.49291 20.9142 6.6656 20.6943 6.88473C20.4744 7.10385 20.2997 7.36503 20.1805 7.65306C20.0613 7.9411 20 8.25023 20 8.56248ZM14.6032 10.8815C15.2145 10.8816 15.8014 10.6384 16.237 10.2045C16.6726 9.77057 16.922 9.18078 16.9312 8.56248C16.9221 7.94085 16.6739 7.34726 16.2393 6.90765C15.8046 6.46805 15.2178 6.21701 14.6032 6.2078C13.9919 6.21717 13.4087 6.46938 12.9798 6.90995C12.5508 7.35053 12.3103 7.94411 12.3104 8.56248C12.3104 9.17752 12.552 9.76736 12.9819 10.2023C13.4119 10.6372 13.9951 10.8815 14.6032 10.8815ZM38.448 2.319C38.448 2.01447 38.3887 1.71291 38.2734 1.43156C38.1582 1.15021 37.9893 0.89456 37.7764 0.679221C37.5635 0.463881 37.3108 0.293065 37.0326 0.176524C36.7544 0.0599828 36.4563 1.55354e-08 36.1552 1.55354e-08C35.5438 -7.09673e-05 34.957 0.243107 34.5214 0.677009C34.0858 1.11091 33.8364 1.70071 33.8272 2.319C33.8272 2.9435 34.0724 3.54243 34.509 3.98402C34.9456 4.4256 35.5378 4.67369 36.1552 4.67369C36.4593 4.67372 36.7603 4.61258 37.0408 4.49381C37.3213 4.37505 37.5757 4.20103 37.789 3.9819C38.0024 3.76277 38.1705 3.50289 38.2837 3.21741C38.3968 2.93192 38.4526 2.62653 38.448 2.319ZM30.7584 2.319C30.7584 1.70397 30.5168 1.11412 30.0868 0.679221C29.6569 0.244323 29.0737 1.55354e-08 28.4656 1.55354e-08C27.8542 -7.09673e-05 27.2674 0.243107 26.8318 0.677009C26.3962 1.11091 26.1468 1.70071 26.1376 2.319C26.1376 2.62823 26.1978 2.93442 26.3148 3.2201C26.4318 3.50579 26.6033 3.76536 26.8194 3.98402C27.0356 4.20267 27.2923 4.37611 27.5747 4.49445C27.8572 4.61278 28.1599 4.67369 28.4656 4.67369C28.7697 4.67372 29.0707 4.61258 29.3512 4.49381C29.6317 4.37505 29.8861 4.20103 30.0994 3.9819C30.3128 3.76277 30.481 3.50289 30.5941 3.21741C30.7072 2.93192 30.7631 2.62653 30.7584 2.319ZM20.776 4.67369C21.0801 4.67372 21.3811 4.61258 21.6616 4.49381C21.9421 4.37505 22.1965 4.20103 22.4098 3.9819C22.6232 3.76277 22.7914 3.50289 22.9045 3.21741C23.0176 2.93192 23.0735 2.62653 23.0688 2.319C23.0688 2.01447 23.0095 1.71291 22.8943 1.43156C22.779 1.15021 22.6101 0.89456 22.3972 0.679221C22.1843 0.463881 21.9316 0.293065 21.6534 0.176524C21.3752 0.0599828 21.0771 1.55354e-08 20.776 1.55354e-08C20.1646 -7.09673e-05 19.5778 0.243107 19.1422 0.677009C18.7066 1.11091 18.4572 1.70071 18.448 2.319C18.448 2.9435 18.6932 3.54243 19.1298 3.98402C19.5664 4.4256 20.1586 4.67369 20.776 4.67369Z" fill="white"/>
</svg>
